:SAMPLES-PER-SECOND 30
:FULLY-SPECIFIED
:DEGREES
167
root  -23.6743 39.3315 -4.38481 -14.4784 83.6549 -11.7351
RightUpLeg  -0.966337 -8.63609 1.76293
RightLeg  18.388 -4.11938 0.182223
RightFoot  -13.3604 -0.165216 -4.23931
RightToes  -1.33073e-015 0 -3.6325e-017
Spine  10.0292 4.9445 19.3057
Spine1  1.63556 8.08597 -7.0348
HEad  -20.9799 -59.3567 16.3615
LeftShoulder1  -0.00459412 3.51691 -28.4012
LeftArm  -1.48525 18.709 -39.2528
LeftForeArm  24.7184 -26.727 -4.4197
LeftHand  -0.0294248 5.9229 0.31752
RightShoulder  -0.0986842 -3.95948 13.868
RightArm  -43.8325 32.8943 10.6775
RightForeArm  -13.3337 21.2537 4.05398
RightHand  -2.06844 21.8175 -9.22874
LeftUpLeg  -20.9254 -2.64654 2.82291
LeftLeg  36.435 -3.0497 -2.03076
LeftFoot  -2.05041 0.184061 -2.10703
LeftToes  -1.63346e-009 7.54925e-011 9.86887e-012
168
root  -22.4069 39.3925 -4.27415 -10.883 83.6369 -8.53961
RightUpLeg  1.7995 -8.66037 1.04556
RightLeg  16.2586 -3.83996 0.417757
RightFoot  -14.0746 -0.190173 -3.97978
RightToes  -1.33073e-015 0 -3.6325e-017
Spine  9.53866 5.37089 19.3351
Spine1  1.98421 8.43785 -7.89671
HEad  -23.3743 -60.4632 18.8243
LeftShoulder1  0.0545336 3.34338 -27.7546
LeftArm  -1.94463 18.9841 -38.8724
LeftForeArm  25.1091 -25.4612 -4.12326
LeftHand  -0.0283921 5.87101 -0.335286
RightShoulder  -0.0882785 -3.95953 11.2593
RightArm  -36.5598 35.9714 7.65108
RightForeArm  -24.6913 13.3399 -1.78581
RightHand  -2.01349 21.6942 -9.03094
LeftUpLeg  -20.6802 -1.5584 2.40567
LeftLeg  24.3594 -5.1007 -2.18641
LeftFoot  -1.40752 0.271753 -3.03156
LeftToes  -1.63346e-009 7.54925e-011 9.86887e-012
169
root  -21.1362 39.4227 -4.16355 -6.72751 83.4588 -4.98343
RightUpLeg  4.34464 -8.53956 0.389981
RightLeg  14 -3.63406 0.505356
RightFoot  -14.5978 -0.202071 -3.63288
RightToes  -1.33073e-015 0 -3.6325e-017
Spine  9.24252 5.6867 19.0177
Spine1  1.84218 8.71273 -8.80772
HEad  -24.915 -61.2295 20.6693
LeftShoulder1  0.0821716 3.25786 -27.2535
LeftArm  -2.16053 19.7233 -37.962
LeftForeArm  24.7282 -24.3649 -3.91198
LeftHand  -0.0348563 6.37651 0.0544102
RightShoulder  -0.056125 -3.81825 9.54994
RightArm  -33.8389 38.6814 4.2495
RightForeArm  -29.5484 4.94704 -3.62077
RightHand  -1.66123 21.1104 -7.71853
LeftUpLeg  -19.8087 0.066881 1.53028
LeftLeg  11.6394 -6.42022 -1.27716
LeftFoot  -1.24614 0.397765 -4.41562
LeftToes  -1.63346e-009 7.54925e-011 9.86887e-012
170
root  -19.8208 39.3721 -4.08257 -3.43405 83.1658 -1.87723
RightUpLeg  7.27325 -8.6152 -0.476159
RightLeg  12.1173 -3.06763 0.643335
RightFoot  -15.4695 -0.216151 -3.09909
RightToes  -1.33073e-015 0 -3.6325e-017
Spine  9.19102 5.92452 18.7671
Spine1  1.92236 9.06107 -9.61264
HEad  -25.5758 -61.2989 21.586
LeftShoulder1  0.141499 3.07367 -26.7046
LeftArm  -2.22246 20.4587 -37.0958
LeftForeArm  24.2157 -23.082 -3.73676
LeftHand  -0.0405969 6.64608 -0.616343
RightShoulder  -0.0453175 -3.78688 7.40185
RightArm  -34.723 40.6136 2.0458
RightForeArm  -32.9586 -1.69706 -4.03219
RightHand  -1.65847 19.1317 -8.26094
LeftUpLeg  -18.5063 1.97876 0.485198
LeftLeg  1.40652 -4.907 -0.398301
LeftFoot  -1.36343 0.479094 -5.40998
LeftToes  -1.63346e-009 7.54925e-011 9.86887e-012
171
root  -18.4079 39.1706 -4.02924 -1.52097 82.9902 0.305023
RightUpLeg  10.3361 -9.00161 -1.53558
RightLeg  11.506 -2.1039 0.729012
RightFoot  -17.073 -0.222131 -2.15596
RightToes  -1.33073e-015 0 -3.6325e-017
Spine  9.13517 5.94679 18.4516
Spine1  2.26758 9.20815 -10.206
HEad  -25.4728 -61.5588 22.3918
LeftShoulder1  0.161939 3.00362 -26.1562
LeftArm  -3.36257 21.312 -36.4284
LeftForeArm  25.0126 -21.8678 -3.6907
LeftHand  -0.0486725 7.07971 -0.589791
RightShoulder  -0.0250613 -3.67641 5.84844
RightArm  -34.9012 41.5742 0.51416
RightForeArm  -37.777 -4.43403 -3.77229
RightHand  -1.66639 19.8218 -8.08581
LeftUpLeg  -17.5544 1.9218 -0.0106137
LeftLeg  -3.30599 0.169366 -0.705406
LeftFoot  -2.35235 0.531913 -6.45675
LeftToes  -1.63346e-009 7.54925e-011 9.86887e-012
172
root  -16.9296 38.8763 -3.99896 0.116608 83.2184 2.11353
RightUpLeg  12.9885 -9.43223 -2.59002
RightLeg  11.7769 -1.3391 0.641364
RightFoot  -18.9053 -0.168316 -0.600927
RightToes  -1.33073e-015 0 -3.6325e-017
Spine  8.87965 5.95902 17.6499
Spine1  2.43917 9.14205 -9.89013
HEad  -24.5577 -61.8201 22.2195
LeftShoulder1  0.177412 2.95869 -26.3431
LeftArm  -3.30458 21.8503 -35.0622
LeftForeArm  24.7484 -20.6537 -3.84359
LeftHand  -0.0406165 6.56104 -0.380922
RightShoulder  -0.0363088 -3.78219 4.49444
RightArm  -34.9472 41.7909 -0.264582
RightForeArm  -41.4306 -4.10984 -3.25623
RightHand  -1.51396 18.3583 -7.82603
LeftUpLeg  -17.9851 1.47611 -0.91292
LeftLeg  -1.2886 3.13809 -0.799199
LeftFoot  -1.28173 0.376768 -4.66366
LeftToes  -1.63346e-009 7.54925e-011 9.86887e-012
173
root  -15.4161 38.6093 -3.99067 5.83154 83.4363 8.15353
RightUpLeg  15.4999 -10.1353 -4.40946
RightLeg  12.8156 -0.0616425 0.529419
RightFoot  -20.2851 -0.0136236 1.55834
RightToes  -1.33073e-015 0 -3.6325e-017
Spine  8.57065 6.07413 16.3735
Spine1  3.01104 9.23045 -9.60859
HEad  -23.9273 -62.5861 22.6311
LeftShoulder1  0.19744 2.89725 -26.3391
LeftArm  -4.33004 21.7951 -34.4462
LeftForeArm  26.0136 -19.1243 -4.03252
LeftHand  -0.0537113 6.77196 -1.29047
RightShoulder  -0.0321956 -3.77613 3.35692
RightArm  -33.8232 41.346 -0.993626
RightForeArm  -43.8483 -4.13534 -2.57217
RightHand  -1.58575 16.9124 -8.66248
LeftUpLeg  -19.2927 1.00852 -2.5404
LeftLeg  4.68059 2.55363 -0.572319
LeftFoot  5.98224 -0.383434 2.21886
LeftToes  -1.63346e-009 7.54925e-011 9.86887e-012
174
root  -13.8306 38.2914 -4.03845 12.5792 83.1678 15.5153
RightUpLeg  17.3123 -10.0548 -6.39581
RightLeg  15.9092 1.19359 0.26671
RightFoot  -21.5934 0.319854 5.13808
RightToes  -1.33073e-015 0 -3.6325e-017
Spine  8.46993 6.08819 15.3638
Spine1  3.29388 9.22779 -9.95785
HEad  -23.2443 -62.718 22.7236
LeftShoulder1  0.130571 3.10285 -26.4223
LeftArm  -4.23854 21.8546 -33.5493
LeftForeArm  25.2778 -18.322 -4.25859
LeftHand  -0.0470835 6.77839 -0.775425
RightShoulder  -0.0408555 -3.85334 3.28716
RightArm  -32.866 41.1438 -1.51405
RightForeArm  -44.1661 -4.21255 -2.06342
RightHand  -1.62179 16.0017 -9.19474
LeftUpLeg  -19.9896 1.48062 -4.37804
LeftLeg  10.4552 0.804151 -0.279045
LeftFoot  11.4109 -1.13306 5.41513
LeftToes  -1.63346e-009 7.54925e-011 9.86887e-012
175
root  -12.317 38.0553 -4.08607 24.9718 83.0832 28.6143
RightUpLeg  17.5331 -7.98412 -8.1622
RightLeg  21.7299 0.576669 0.0130665
RightFoot  -21.4642 0.794147 10.7223
RightToes  -1.33073e-015 0 -3.6325e-017
Spine  8.67189 6.03169 13.372
Spine1  3.69269 9.00218 -9.64608
HEad  -22.1455 -62.8194 22.3084
LeftShoulder1  0.0926901 3.22318 -26.8737
LeftArm  -5.4538 21.1725 -33.5029
LeftForeArm  26.5321 -17.1272 -4.40745
LeftHand  -0.0423289 6.68842 -0.733783
RightShoulder  -0.0355806 -3.80984 3.15357
RightArm  -32.0791 40.2206 -1.35828
RightForeArm  -44.7095 -4.21997 -1.89726
RightHand  -1.52403 16.3559 -8.54563
LeftUpLeg  -20.9662 2.25809 -6.99804
LeftLeg  18.5687 -0.055338 0.370501
LeftFoot  5.92805 -1.03968 6.58999
LeftToes  -1.63346e-009 7.54925e-011 9.86887e-012
176
root  -10.9306 37.9762 -4.12969 29.9574 82.2897 33.9836
RightUpLeg  14.8912 -5.06404 -9.07822
RightLeg  30.8982 -0.106802 -0.317688
RightFoot  -17.4135 0.729449 16.6952
RightToes  -1.33073e-015 0 -3.6325e-017
Spine  9.10183 6.35104 12.3998
Spine1  4.0001 9.29513 -10.2024
HEad  -20.2341 -62.6099 20.4272
LeftShoulder1  0.172897 2.97745 -26.659
LeftArm  -7.0016 20.506 -34.5881
LeftForeArm  27.8165 -16.0496 -4.47414
LeftHand  -0.0480006 7.06028 -1.06242
RightShoulder  -0.0584419 -3.9864 3.81833
RightArm  -31.9162 39.6159 -1.30646
RightForeArm  -43.6402 -4.22985 -2.08496
RightHand  -1.40633 16.6754 -7.81076
LeftUpLeg  -20.1931 2.54632 -8.2869
LeftLeg  22.3061 0.488305 0.555601
LeftFoot  2.36771 -0.945831 7.74061
LeftToes  -1.63346e-009 7.54925e-011 9.86887e-012
177
root  -9.63167 38.0852 -4.18595 28.9941 80.3026 33.1978
RightUpLeg  9.08638 -0.956388 -9.81665
RightLeg  42.6476 -0.22026 -0.492059
RightFoot  -7.25217 -0.467584 16.5293
RightToes  -1.33073e-015 0 -3.6325e-017
Spine  9.86864 6.84379 11.1225
Spine1  4.00748 9.6586 -10.4193
HEad  -18.4211 -60.4658 18.274
LeftShoulder1  0.132971 3.1037 -27.0375
LeftArm  -6.27408 20.5344 -35.1331
LeftForeArm  27.1358 -17.0124 -4.35375
LeftHand  -0.0507838 7.27575 -1.37408
RightShoulder  -0.0480435 -3.88264 4.46278
RightArm  -32.7835 39.8809 -0.760383
RightForeArm  -41.6738 -4.20893 -2.67325
RightHand  -1.30565 16.0386 -7.4901
LeftUpLeg  -18.288 4.08579 -9.45157
LeftLeg  23.1986 1.05147 0.837452
LeftFoot  -0.128977 -0.869724 8.82613
LeftToes  -1.63346e-009 7.54925e-011 9.86887e-012
178
root  -8.35487 38.1895 -4.18232 29.0415 78.677 33.5049
RightUpLeg  2.44374 2.75724 -10.2889
RightLeg  53.7109 0.63637 0.587444
RightFoot  3.70846 -1.20707 8.72907
RightToes  -1.33073e-015 0 -3.6325e-017
Spine  10.0239 6.74375 9.14008
Spine1  4.62632 9.23981 -9.73208
HEad  -16.5934 -57.1053 16.0768
LeftShoulder1  0.0965156 3.21242 -26.9446
LeftArm  -5.49536 20.5956 -36.2411
LeftForeArm  26.8052 -18.4875 -4.08227
LeftHand  -0.0381369 6.77329 -1.57786
RightShoulder  -0.00358638 -3.51521 5.15137
RightArm  -34.8406 40.3427 0.581187
RightForeArm  -40.2726 -4.20283 -3.83858
RightHand  -1.3881 16.4345 -7.79877
LeftUpLeg  -16.1513 4.68286 -10.4135
LeftLeg  23.7628 1.96283 1.29522
LeftFoot  -2.44911 -0.674731 8.84672
LeftToes  -1.63346e-009 7.54925e-011 9.86887e-012
179
root  -7.1162 38.3006 -4.15285 28.1598 77.9364 32.5693
RightUpLeg  -3.02864 5.0233 -10.4079
RightLeg  60.58 2.05642 3.44168
RightFoot  1.87981 -1.02095 8.90496
RightToes  -1.33073e-015 0 -3.6325e-017
Spine  9.38844 6.37056 7.94306
Spine1  5.91521 8.59151 -9.3056
HEad  -15.4983 -53.1883 14.5064
LeftShoulder1  0.0645975 3.3101 -27.1299
LeftArm  -3.7388 19.3314 -36.8702
LeftForeArm  26.2906 -19.4573 -4.03932
LeftHand  -0.0256195 6.19935 -0.679386
RightShoulder  -0.0427049 -3.79286 6.40091
RightArm  -36.069 40.153 1.94839
RightForeArm  -36.6035 -2.41327 -4.5182
RightHand  -1.43649 16.515 -8.02969
LeftUpLeg  -14.158 4.71002 -10.7321
LeftLeg  23.9767 2.62525 1.62999
LeftFoot  -4.7582 -0.476961 8.76899
LeftToes  -1.63346e-009 7.54925e-011 9.86887e-012
